<svg xmlns="http://www.w3.org/2000/svg" viewBox="1.2200000286102295 14.890000343322754 1345 47.65999984741211" data-asc="1.0478515625" width="1345" height="47.65999984741211"><defs/><g fill="#378cfb"><g transform="translate(0, 0)"><path d="M20.90 44.21L23.29 52.39L29.37 52.39L17.99 16.85L12.79 16.85L1.22 52.39L7.32 52.39L9.74 44.21L20.90 44.21M11.23 39.18L15.38 25.12L19.46 39.18L11.23 39.18ZM34.91 14.89L34.91 19.75L43.26 19.75L43.26 47.56L34.91 47.56L34.91 52.39L57.15 52.39L57.15 47.56L49.15 47.56L49.15 14.89L34.91 14.89ZM76.12 52.88Q79.98 52.88 82.70 51.37Q85.42 49.85 86.74 47.95L83.62 44.92Q82.40 46.48 80.52 47.33Q78.64 48.17 76.46 48.17Q74.88 48.17 73.55 47.63Q72.22 47.09 71.24 46.12Q70.26 45.19 69.70 44.02Q69.14 42.85 68.87 41.11L68.87 40.99L87.18 40.99L87.18 38.48Q87.18 35.64 86.43 33.25Q85.67 30.86 84.18 29.13Q82.69 27.42 80.49 26.45Q78.30 25.49 75.44 25.49Q72.88 25.49 70.62 26.45Q68.36 27.42 66.65 29.20Q64.94 30.98 63.96 33.50Q62.99 36.01 62.99 39.11L62.99 40.11Q62.99 42.82 63.93 45.15Q64.87 47.49 66.60 49.19Q68.33 50.93 70.76 51.90Q73.19 52.88 76.12 52.88M75.42 30.22Q76.88 30.22 77.99 30.73Q79.10 31.23 79.83 32.06Q80.59 32.91 81.01 34.05Q81.42 35.18 81.42 36.33L81.42 36.72L68.99 36.72Q69.26 35.21 69.82 34.01Q70.39 32.81 71.22 31.96Q72.05 31.13 73.11 30.68Q74.17 30.22 75.42 30.22ZM105.40 34.86L99.15 25.98L92.72 25.98L101.98 38.99L92.41 52.39L98.88 52.39L105.44 43.16L112.04 52.39L118.48 52.39L108.91 38.99L118.19 25.98L111.72 25.98L105.40 34.86ZM177.76 36.99L177.76 32.30Q177.76 30.08 177.37 28.02Q176.98 25.95 176.20 24.15Q175.49 22.46 174.44 21.04Q173.39 19.63 171.97 18.58Q170.56 17.53 168.77 16.94Q166.99 16.36 164.87 16.36Q162.77 16.36 161.02 16.93Q159.28 17.50 157.91 18.55Q156.49 19.63 155.46 21.08Q154.42 22.53 153.71 24.27Q152.98 26.07 152.61 28.10Q152.25 30.13 152.25 32.30L152.25 36.99Q152.25 39.06 152.59 41.03Q152.93 42.99 153.61 44.73Q154.32 46.53 155.38 48.05Q156.45 49.56 157.86 50.63Q159.25 51.68 161.02 52.28Q162.79 52.88 164.92 52.88Q166.97 52.88 168.69 52.32Q170.41 51.76 171.83 50.78Q173.29 49.71 174.41 48.21Q175.54 46.70 176.29 44.92Q177.00 43.14 177.38 41.14Q177.76 39.14 177.76 36.99M171.85 32.25L171.85 36.99Q171.83 38.31 171.69 39.59Q171.56 40.87 171.26 42.04Q170.92 43.38 170.35 44.49Q169.78 45.61 168.92 46.41Q168.19 47.12 167.18 47.53Q166.16 47.95 164.92 47.95Q163.62 47.95 162.63 47.52Q161.65 47.09 160.89 46.36Q160.11 45.58 159.56 44.45Q159.01 43.31 158.69 41.99Q158.40 40.82 158.28 39.55Q158.15 38.28 158.15 36.99L158.15 32.25Q158.15 30.93 158.29 29.63Q158.42 28.32 158.72 27.15Q159.03 25.78 159.62 24.67Q160.21 23.56 161.06 22.75Q161.77 22.09 162.72 21.72Q163.67 21.34 164.87 21.34Q166.11 21.34 167.09 21.73Q168.07 22.12 168.82 22.80Q169.68 23.58 170.28 24.69Q170.87 25.81 171.24 27.15Q171.56 28.32 171.69 29.61Q171.83 30.91 171.85 32.25ZM202.08 25.49Q199.34 25.49 197.08 26.76Q194.82 28.03 193.21 30.25L193.19 29.64L192.94 25.98L187.48 25.98L187.48 52.39L193.31 52.39L193.31 36.08Q193.77 34.91 194.46 34.01Q195.14 33.11 196.12 32.52Q197.02 31.91 198.19 31.62Q199.37 31.32 200.83 31.32Q202.12 31.32 203.43 31.47Q204.74 31.62 206.08 31.91L206.91 26.15Q206.15 25.88 204.82 25.68Q203.49 25.49 202.08 25.49ZM213.82 52.39L219.65 52.39L219.65 33.54Q220.04 32.89 220.56 32.32Q221.07 31.76 221.66 31.37Q222.41 30.86 223.34 30.58Q224.27 30.30 225.34 30.30Q226.64 30.30 227.64 30.58Q228.64 30.86 229.35 31.52Q230.05 32.18 230.42 33.28Q230.79 34.38 230.79 36.01L230.79 52.39L236.62 52.39L236.62 35.91Q236.62 33.13 235.96 31.16Q235.30 29.20 234.11 27.93Q232.91 26.66 231.23 26.07Q229.54 25.49 227.51 25.49Q225.98 25.49 224.58 25.93Q223.19 26.37 222.02 27.17Q221.29 27.69 220.64 28.33Q220.00 28.98 219.46 29.74L219.09 25.98L213.82 25.98L213.82 52.39ZM242.75 38.94L242.75 39.45Q242.75 42.36 243.58 44.80Q244.41 47.24 246.00 49.05Q247.56 50.85 249.85 51.88Q252.15 52.91 255.05 52.91Q257.93 52.91 260.22 51.88Q262.50 50.85 264.06 49.05Q265.63 47.24 266.46 44.80Q267.29 42.36 267.29 39.45L267.29 38.94Q267.29 36.06 266.46 33.61Q265.63 31.15 264.06 29.35Q262.48 27.54 260.19 26.51Q257.91 25.49 255.00 25.49Q252.10 25.49 249.83 26.51Q247.56 27.54 246.00 29.35Q244.41 31.15 243.58 33.61Q242.75 36.06 242.75 38.94M248.58 39.45L248.58 38.94Q248.58 37.21 248.96 35.62Q249.34 34.03 250.15 32.84Q250.93 31.64 252.14 30.93Q253.34 30.22 255.00 30.22Q256.69 30.22 257.90 30.93Q259.11 31.64 259.91 32.84Q260.67 34.03 261.06 35.62Q261.45 37.21 261.45 38.94L261.45 39.45Q261.45 41.24 261.07 42.82Q260.69 44.41 259.91 45.61Q259.13 46.80 257.91 47.50Q256.69 48.19 255.05 48.19Q253.37 48.19 252.15 47.50Q250.93 46.80 250.15 45.61Q249.34 44.41 248.96 42.82Q248.58 41.24 248.58 39.45ZM291.09 45.24Q291.09 45.87 290.81 46.40Q290.53 46.92 289.97 47.36Q289.28 47.90 288.15 48.22Q287.01 48.54 285.50 48.54Q284.38 48.54 283.28 48.30Q282.18 48.07 281.32 47.53Q280.44 47.02 279.87 46.18Q279.30 45.34 279.22 44.12L273.56 44.12Q273.56 45.75 274.34 47.34Q275.12 48.93 276.64 50.15Q278.13 51.39 280.33 52.15Q282.54 52.91 285.40 52.91Q287.96 52.91 290.06 52.32Q292.16 51.73 293.68 50.68Q295.17 49.63 295.98 48.17Q296.80 46.70 296.80 44.95Q296.80 43.14 296.02 41.82Q295.24 40.50 293.82 39.53Q292.41 38.60 290.41 37.96Q288.40 37.33 285.99 36.89Q284.25 36.60 283.12 36.23Q281.98 35.86 281.35 35.42Q280.66 35.01 280.40 34.46Q280.13 33.91 280.13 33.23Q280.13 32.57 280.44 31.97Q280.76 31.37 281.40 30.93Q282.03 30.44 283.02 30.16Q284.01 29.88 285.33 29.88Q286.77 29.88 287.84 30.26Q288.92 30.64 289.60 31.27Q290.19 31.81 290.49 32.48Q290.80 33.15 290.80 33.89L296.63 33.89Q296.63 32.10 295.85 30.57Q295.07 29.03 293.63 27.91Q292.16 26.78 290.06 26.14Q287.96 25.49 285.33 25.49Q282.86 25.49 280.85 26.12Q278.83 26.76 277.42 27.86Q275.98 28.96 275.21 30.41Q274.44 31.86 274.44 33.47Q274.44 35.16 275.20 36.43Q275.95 37.70 277.29 38.62Q278.66 39.60 280.55 40.28Q282.45 40.97 284.74 41.43Q286.57 41.77 287.79 42.16Q289.01 42.55 289.77 42.99Q290.48 43.48 290.78 44.02Q291.09 44.56 291.09 45.24ZM320.70 52.39L326.66 52.39L326.66 51.98Q326.17 50.95 325.92 49.52Q325.66 48.10 325.66 46.31L325.66 34.57Q325.66 32.32 324.83 30.60Q324.00 28.88 322.53 27.76Q321.07 26.64 319.06 26.06Q317.04 25.49 314.72 25.49Q312.13 25.49 310.12 26.16Q308.11 26.83 306.74 27.98Q305.32 29.10 304.59 30.57Q303.86 32.03 303.83 33.62L309.69 33.62Q309.69 32.86 309.97 32.19Q310.25 31.52 310.84 31.05Q311.43 30.54 312.32 30.25Q313.21 29.96 314.40 29.96Q315.72 29.96 316.74 30.29Q317.75 30.62 318.46 31.23Q319.12 31.84 319.47 32.67Q319.82 33.50 319.82 34.52L319.82 36.30L315.58 36.30Q312.72 36.30 310.46 36.84Q308.20 37.38 306.67 38.40Q305.00 39.50 304.14 41.17Q303.27 42.85 303.27 45.02Q303.27 46.70 303.94 48.16Q304.61 49.61 305.83 50.63Q307.03 51.68 308.73 52.28Q310.42 52.88 312.48 52.88Q313.75 52.88 314.84 52.64Q315.94 52.39 316.89 51.95Q317.85 51.54 318.62 50.96Q319.38 50.39 320.00 49.76Q320.12 50.51 320.28 51.21Q320.43 51.90 320.70 52.39M313.60 48.19Q312.48 48.19 311.65 47.91Q310.82 47.63 310.25 47.14Q309.69 46.66 309.40 45.96Q309.11 45.26 309.11 44.46Q309.11 43.48 309.46 42.70Q309.81 41.92 310.55 41.36Q311.38 40.70 312.77 40.34Q314.16 39.99 316.06 39.99L319.82 39.99L319.82 44.87Q319.51 45.51 318.92 46.09Q318.33 46.68 317.53 47.14Q316.72 47.61 315.73 47.90Q314.75 48.19 313.60 48.19ZM745.14 37.26L745.14 32.42L730.10 32.42L730.10 21.70L747.29 21.70L747.29 16.85L724.19 16.85L724.19 52.39L730.10 52.39L730.10 37.26L745.14 37.26ZM771.22 52.39L776.51 52.39L776.51 25.98L770.65 25.98L770.65 44.68Q770.31 45.41 769.82 46.01Q769.34 46.61 768.70 47.05Q767.94 47.53 766.94 47.81Q765.94 48.10 764.67 48.10Q763.45 48.10 762.55 47.78Q761.65 47.46 761.06 46.70Q760.47 45.97 760.21 44.74Q759.94 43.51 759.94 41.67L759.94 25.98L754.10 25.98L754.10 41.63Q754.10 44.60 754.76 46.74Q755.42 48.88 756.62 50.24Q757.84 51.61 759.53 52.26Q761.23 52.91 763.28 52.91Q765.67 52.91 767.60 51.79Q769.53 50.68 770.87 48.71L771.22 52.39ZM785.03 14.89L785.03 19.75L793.38 19.75L793.38 47.56L785.03 47.56L785.03 52.39L807.28 52.39L807.28 47.56L799.27 47.56L799.27 14.89L785.03 14.89ZM815.04 14.89L815.04 19.75L823.39 19.75L823.39 47.56L815.04 47.56L815.04 52.39L837.28 52.39L837.28 47.56L829.27 47.56L829.27 14.89L815.04 14.89ZM891.19 45.24Q891.19 45.87 890.91 46.40Q890.63 46.92 890.06 47.36Q889.38 47.90 888.24 48.22Q887.11 48.54 885.60 48.54Q884.47 48.54 883.37 48.30Q882.28 48.07 881.42 47.53Q880.54 47.02 879.97 46.18Q879.39 45.34 879.32 44.12L873.66 44.12Q873.66 45.75 874.44 47.34Q875.22 48.93 876.73 50.15Q878.22 51.39 880.43 52.15Q882.64 52.91 885.50 52.91Q888.06 52.91 890.16 52.32Q892.26 51.73 893.77 50.68Q895.26 49.63 896.08 48.17Q896.90 46.70 896.90 44.95Q896.90 43.14 896.12 41.82Q895.34 40.50 893.92 39.53Q892.50 38.60 890.50 37.96Q888.50 37.33 886.08 36.89Q884.35 36.60 883.22 36.23Q882.08 35.86 881.45 35.42Q880.76 35.01 880.49 34.46Q880.22 33.91 880.22 33.23Q880.22 32.57 880.54 31.97Q880.86 31.37 881.49 30.93Q882.13 30.44 883.12 30.16Q884.11 29.88 885.42 29.88Q886.87 29.88 887.94 30.26Q889.01 30.64 889.70 31.27Q890.28 31.81 890.59 32.48Q890.89 33.15 890.89 33.89L896.73 33.89Q896.73 32.10 895.95 30.57Q895.17 29.03 893.73 27.91Q892.26 26.78 890.16 26.14Q888.06 25.49 885.42 25.49Q882.96 25.49 880.94 26.12Q878.93 26.76 877.51 27.86Q876.07 28.96 875.31 30.41Q874.54 31.86 874.54 33.47Q874.54 35.16 875.29 36.43Q876.05 37.70 877.39 38.62Q878.76 39.60 880.65 40.28Q882.54 40.97 884.84 41.43Q886.67 41.77 887.89 42.16Q889.11 42.55 889.87 42.99Q890.58 43.48 890.88 44.02Q891.19 44.56 891.19 45.24ZM915.65 19.53L909.79 19.53L909.79 25.98L903.39 25.98L903.39 30.35L909.79 30.35L909.79 43.33Q909.79 45.87 910.46 47.68Q911.13 49.49 912.33 50.63Q913.53 51.81 915.20 52.36Q916.87 52.91 918.87 52.91Q919.97 52.91 921.08 52.80Q922.19 52.69 923.22 52.49Q924.24 52.29 925.13 52.01Q926.03 51.73 926.66 51.34L926.03 47.31Q925.59 47.41 924.94 47.55Q924.29 47.68 923.56 47.78Q922.80 47.90 922.00 47.97Q921.19 48.05 920.43 48.05Q919.38 48.05 918.51 47.80Q917.63 47.56 916.99 46.97Q916.36 46.41 916.00 45.42Q915.65 44.43 915.65 42.97L915.65 30.35L925.59 30.35L925.59 25.98L915.65 25.98L915.65 19.53ZM950.81 52.39L956.76 52.39L956.76 51.98Q956.27 50.95 956.02 49.52Q955.76 48.10 955.76 46.31L955.76 34.57Q955.76 32.32 954.93 30.60Q954.10 28.88 952.64 27.76Q951.17 26.64 949.16 26.06Q947.14 25.49 944.82 25.49Q942.24 25.49 940.22 26.16Q938.21 26.83 936.84 27.98Q935.42 29.10 934.69 30.57Q933.96 32.03 933.94 33.62L939.79 33.62Q939.79 32.86 940.08 32.19Q940.36 31.52 940.94 31.05Q941.53 30.54 942.42 30.25Q943.31 29.96 944.51 29.96Q945.83 29.96 946.84 30.29Q947.85 30.62 948.56 31.23Q949.22 31.84 949.57 32.67Q949.93 33.50 949.93 34.52L949.93 36.30L945.68 36.30Q942.82 36.30 940.56 36.84Q938.31 37.38 936.77 38.40Q935.11 39.50 934.24 41.17Q933.37 42.85 933.37 45.02Q933.37 46.70 934.05 48.16Q934.72 49.61 935.94 50.63Q937.13 51.68 938.83 52.28Q940.53 52.88 942.58 52.88Q943.85 52.88 944.95 52.64Q946.04 52.39 947.00 51.95Q947.95 51.54 948.72 50.96Q949.49 50.39 950.10 49.76Q950.22 50.51 950.38 51.21Q950.54 51.90 950.81 52.39M943.70 48.19Q942.58 48.19 941.75 47.91Q940.92 47.63 940.36 47.14Q939.79 46.66 939.50 45.96Q939.21 45.26 939.21 44.46Q939.21 43.48 939.56 42.70Q939.92 41.92 940.65 41.36Q941.48 40.70 942.87 40.34Q944.26 39.99 946.17 39.99L949.93 39.99L949.93 44.87Q949.61 45.51 949.02 46.09Q948.44 46.68 947.63 47.14Q946.83 47.61 945.84 47.90Q944.85 48.19 943.70 48.19ZM975.44 48.19Q973.61 48.19 972.39 47.46Q971.17 46.73 970.46 45.51Q969.73 44.34 969.42 42.79Q969.12 41.24 969.12 39.62L969.12 38.77Q969.12 37.18 969.42 35.64Q969.73 34.11 970.48 32.91Q971.19 31.71 972.40 30.97Q973.61 30.22 975.44 30.22Q976.64 30.22 977.67 30.64Q978.71 31.05 979.47 31.76Q980.20 32.47 980.60 33.42Q981.01 34.38 981.01 35.45L986.50 35.45Q986.52 33.25 985.71 31.42Q984.89 29.59 983.42 28.27Q981.96 26.95 979.92 26.22Q977.88 25.49 975.49 25.49Q972.46 25.49 970.18 26.55Q967.90 27.61 966.36 29.42Q964.82 31.23 964.05 33.64Q963.28 36.06 963.28 38.77L963.28 39.62Q963.28 42.36 964.06 44.76Q964.84 47.17 966.38 48.97Q967.90 50.78 970.18 51.84Q972.46 52.91 975.51 52.91Q977.71 52.91 979.70 52.19Q981.69 51.46 983.23 50.20Q984.74 48.97 985.63 47.28Q986.52 45.58 986.50 43.65L981.01 43.65Q981.01 44.65 980.55 45.48Q980.10 46.31 979.35 46.92Q978.56 47.53 977.55 47.86Q976.54 48.19 975.44 48.19ZM1003.03 40.89L1011.45 52.39L1018.68 52.39L1006.91 36.99L1017.19 25.98L1010.16 25.98L1002.27 34.28L999.85 36.96L999.85 14.89L993.99 14.89L993.99 52.39L999.85 52.39L999.85 43.90L1003.03 40.89ZM1053.17 38.99L1053.17 39.50Q1053.17 42.36 1053.91 44.81Q1054.64 47.27 1055.98 49.05Q1057.32 50.85 1059.25 51.87Q1061.18 52.88 1063.60 52.88Q1065.89 52.88 1067.65 52.04Q1069.41 51.20 1070.68 49.63L1070.95 52.39L1076.25 52.39L1076.25 14.89L1070.41 14.89L1070.41 28.44Q1069.14 27.03 1067.49 26.26Q1065.84 25.49 1063.65 25.49Q1061.21 25.49 1059.27 26.48Q1057.32 27.47 1055.98 29.25Q1054.61 31.03 1053.89 33.51Q1053.17 35.99 1053.17 38.99M1059.01 39.50L1059.01 38.99Q1059.01 37.21 1059.35 35.63Q1059.69 34.06 1060.45 32.86Q1061.16 31.67 1062.32 30.98Q1063.48 30.30 1065.11 30.30Q1067.07 30.30 1068.35 31.16Q1069.63 32.03 1070.41 33.50L1070.41 44.85Q1069.63 46.34 1068.33 47.20Q1067.04 48.07 1065.06 48.07Q1063.45 48.07 1062.30 47.40Q1061.16 46.73 1060.42 45.53Q1059.69 44.38 1059.35 42.82Q1059.01 41.26 1059.01 39.50ZM1096.29 52.88Q1100.15 52.88 1102.87 51.37Q1105.59 49.85 1106.91 47.95L1103.78 44.92Q1102.56 46.48 1100.68 47.33Q1098.80 48.17 1096.63 48.17Q1095.04 48.17 1093.71 47.63Q1092.38 47.09 1091.41 46.12Q1090.43 45.19 1089.87 44.02Q1089.31 42.85 1089.04 41.11L1089.04 40.99L1107.35 40.99L1107.35 38.48Q1107.35 35.64 1106.59 33.25Q1105.83 30.86 1104.35 29.13Q1102.86 27.42 1100.66 26.45Q1098.46 25.49 1095.61 25.49Q1093.04 25.49 1090.78 26.45Q1088.53 27.42 1086.82 29.20Q1085.11 30.98 1084.13 33.50Q1083.15 36.01 1083.15 39.11L1083.15 40.11Q1083.15 42.82 1084.09 45.15Q1085.03 47.49 1086.77 49.19Q1088.50 50.93 1090.93 51.90Q1093.36 52.88 1096.29 52.88M1095.58 30.22Q1097.05 30.22 1098.16 30.73Q1099.27 31.23 1100 32.06Q1100.76 32.91 1101.17 34.05Q1101.59 35.18 1101.59 36.33L1101.59 36.72L1089.16 36.72Q1089.43 35.21 1089.99 34.01Q1090.55 32.81 1091.38 31.96Q1092.21 31.13 1093.27 30.68Q1094.34 30.22 1095.58 30.22ZM1122.61 52.39L1127.76 52.39L1138.11 25.98L1132.06 25.98L1125.59 45.14L1125.20 46.90L1124.80 45.14L1118.26 25.98L1112.21 25.98L1122.61 52.39ZM1156.30 52.88Q1160.16 52.88 1162.88 51.37Q1165.60 49.85 1166.92 47.95L1163.79 44.92Q1162.57 46.48 1160.69 47.33Q1158.81 48.17 1156.64 48.17Q1155.05 48.17 1153.72 47.63Q1152.39 47.09 1151.42 46.12Q1150.44 45.19 1149.88 44.02Q1149.32 42.85 1149.05 41.11L1149.05 40.99L1167.36 40.99L1167.36 38.48Q1167.36 35.64 1166.60 33.25Q1165.84 30.86 1164.36 29.13Q1162.87 27.42 1160.67 26.45Q1158.47 25.49 1155.62 25.49Q1153.05 25.49 1150.79 26.45Q1148.54 27.42 1146.83 29.20Q1145.12 30.98 1144.14 33.50Q1143.16 36.01 1143.16 39.11L1143.16 40.11Q1143.16 42.82 1144.10 45.15Q1145.04 47.49 1146.78 49.19Q1148.51 50.93 1150.94 51.90Q1153.37 52.88 1156.30 52.88M1155.59 30.22Q1157.06 30.22 1158.17 30.73Q1159.28 31.23 1160.01 32.06Q1160.77 32.91 1161.18 34.05Q1161.60 35.18 1161.60 36.33L1161.60 36.72L1149.17 36.72Q1149.44 35.21 1150 34.01Q1150.56 32.81 1151.39 31.96Q1152.22 31.13 1153.28 30.68Q1154.35 30.22 1155.59 30.22ZM1175.10 14.89L1175.10 19.75L1183.45 19.75L1183.45 47.56L1175.10 47.56L1175.10 52.39L1197.34 52.39L1197.34 47.56L1189.33 47.56L1189.33 14.89L1175.10 14.89ZM1202.91 38.94L1202.91 39.45Q1202.91 42.36 1203.74 44.80Q1204.57 47.24 1206.15 49.05Q1207.71 50.85 1210.01 51.88Q1212.30 52.91 1215.21 52.91Q1218.09 52.91 1220.37 51.88Q1222.66 50.85 1224.22 49.05Q1225.78 47.24 1226.61 44.80Q1227.44 42.36 1227.44 39.45L1227.44 38.94Q1227.44 36.06 1226.61 33.61Q1225.78 31.15 1224.22 29.35Q1222.63 27.54 1220.35 26.51Q1218.07 25.49 1215.16 25.49Q1212.26 25.49 1209.99 26.51Q1207.71 27.54 1206.15 29.35Q1204.57 31.15 1203.74 33.61Q1202.91 36.06 1202.91 38.94M1208.74 39.45L1208.74 38.94Q1208.74 37.21 1209.12 35.62Q1209.50 34.03 1210.30 32.84Q1211.08 31.64 1212.29 30.93Q1213.50 30.22 1215.16 30.22Q1216.85 30.22 1218.05 30.93Q1219.26 31.64 1220.07 32.84Q1220.83 34.03 1221.22 35.62Q1221.61 37.21 1221.61 38.94L1221.61 39.45Q1221.61 41.24 1221.23 42.82Q1220.85 44.41 1220.07 45.61Q1219.29 46.80 1218.07 47.50Q1216.85 48.19 1215.21 48.19Q1213.53 48.19 1212.30 47.50Q1211.08 46.80 1210.30 45.61Q1209.50 44.41 1209.12 42.82Q1208.74 41.24 1208.74 39.45ZM1234.03 62.55L1239.87 62.55L1239.87 50Q1240.33 50.51 1240.87 50.95Q1241.41 51.39 1241.99 51.73Q1242.99 52.29 1244.18 52.59Q1245.36 52.88 1246.78 52.88Q1249.27 52.88 1251.20 51.86Q1253.13 50.83 1254.44 49.02Q1255.76 47.24 1256.43 44.78Q1257.10 42.31 1257.10 39.45L1257.10 38.94Q1257.10 35.96 1256.42 33.48Q1255.74 31.01 1254.44 29.22Q1253.13 27.44 1251.18 26.46Q1249.24 25.49 1246.70 25.49Q1245.41 25.49 1244.26 25.77Q1243.12 26.05 1242.16 26.56Q1241.43 26.95 1240.80 27.49Q1240.16 28.03 1239.62 28.69L1239.40 25.98L1234.03 25.98L1234.03 62.55M1251.27 38.94L1251.27 39.45Q1251.27 41.21 1250.93 42.79Q1250.59 44.36 1249.83 45.58Q1249.10 46.78 1247.94 47.47Q1246.78 48.17 1245.14 48.17Q1244.14 48.17 1243.31 47.94Q1242.48 47.71 1241.82 47.31Q1241.19 46.90 1240.70 46.34Q1240.21 45.78 1239.87 45.09L1239.87 33.35Q1240.26 32.62 1240.78 32.03Q1241.31 31.45 1242.02 31.05Q1242.63 30.69 1243.41 30.49Q1244.19 30.30 1245.09 30.30Q1246.73 30.30 1247.90 30.98Q1249.07 31.67 1249.83 32.84Q1250.56 34.01 1250.92 35.58Q1251.27 37.16 1251.27 38.94ZM1276.32 52.88Q1280.18 52.88 1282.90 51.37Q1285.62 49.85 1286.94 47.95L1283.81 44.92Q1282.59 46.48 1280.71 47.33Q1278.83 48.17 1276.66 48.17Q1275.07 48.17 1273.74 47.63Q1272.41 47.09 1271.44 46.12Q1270.46 45.19 1269.90 44.02Q1269.34 42.85 1269.07 41.11L1269.07 40.99L1287.38 40.99L1287.38 38.48Q1287.38 35.64 1286.62 33.25Q1285.86 30.86 1284.38 29.13Q1282.89 27.42 1280.69 26.45Q1278.49 25.49 1275.63 25.49Q1273.07 25.49 1270.81 26.45Q1268.55 27.42 1266.85 29.20Q1265.14 30.98 1264.16 33.50Q1263.18 36.01 1263.18 39.11L1263.18 40.11Q1263.18 42.82 1264.12 45.15Q1265.06 47.49 1266.80 49.19Q1268.53 50.93 1270.96 51.90Q1273.39 52.88 1276.32 52.88M1275.61 30.22Q1277.08 30.22 1278.19 30.73Q1279.30 31.23 1280.03 32.06Q1280.79 32.91 1281.20 34.05Q1281.62 35.18 1281.62 36.33L1281.62 36.72L1269.19 36.72Q1269.46 35.21 1270.02 34.01Q1270.58 32.81 1271.41 31.96Q1272.24 31.13 1273.30 30.68Q1274.37 30.22 1275.61 30.22ZM1312.26 25.49Q1309.52 25.49 1307.26 26.76Q1305.00 28.03 1303.39 30.25L1303.37 29.64L1303.13 25.98L1297.66 25.98L1297.66 52.39L1303.49 52.39L1303.49 36.08Q1303.96 34.91 1304.64 34.01Q1305.32 33.11 1306.30 32.52Q1307.20 31.91 1308.37 31.62Q1309.55 31.32 1311.01 31.32Q1312.30 31.32 1313.61 31.47Q1314.92 31.62 1316.26 31.91L1317.09 26.15Q1316.33 25.88 1315.00 25.68Q1313.67 25.49 1312.26 25.49ZM1346.22 57.01L1346.22 52.39L1323.90 52.39L1323.90 57.01L1346.22 57.01Z"/></g></g></svg>