<svg xmlns="http://www.w3.org/2000/svg" viewBox="0 14 1407.25 46" data-asc="1.02" width="1407.25" height="46"><defs/><g fill="#db7b03"><g transform="translate(0, 0)"><path d="M0 51L8.95 14.50L18.45 14.50L27.50 51L19.85 51L18.10 42.75L9.40 42.75L7.65 51L0 51M10.65 36.75L16.80 36.75L15.05 27.95Q14.70 26.05 14.33 24.17Q13.95 22.30 13.75 21.25Q13.55 22.30 13.23 24.15Q12.90 26 12.50 27.90L10.65 36.75ZM48.25 51Q45.35 51 43.15 49.77Q40.95 48.55 39.73 46.35Q38.50 44.15 38.50 41.25L38.50 21.25L30 21.25L30 14.50L46 14.50L46 41.25Q46 42.60 46.83 43.42Q47.65 44.25 49 44.25L57 44.25L57 51L48.25 51ZM73.80 51.50Q70.15 51.50 67.42 50.13Q64.70 48.75 63.23 46.27Q61.75 43.80 61.75 40.50L61.75 34Q61.75 30.70 63.23 28.22Q64.70 25.75 67.42 24.38Q70.15 23 73.80 23Q77.45 23 80.13 24.38Q82.80 25.75 84.28 28.22Q85.75 30.70 85.75 34L85.75 39L68.90 39L68.90 40.50Q68.90 43.10 70.15 44.42Q71.40 45.75 73.90 45.75Q75.65 45.75 76.72 45.15Q77.80 44.55 78.15 43.50L85.50 43.50Q84.60 47.10 81.42 49.30Q78.25 51.50 73.80 51.50M78.60 35.15L78.60 33.90Q78.60 31.35 77.42 30Q76.25 28.65 73.80 28.65Q71.35 28.65 70.13 30.05Q68.90 31.45 68.90 34L68.90 34.75L79.10 34.65L78.60 35.15ZM90.05 51L99.55 36.75L90.70 23.50L99.05 23.50L102.45 29Q102.85 29.65 103.20 30.45Q103.55 31.25 103.75 31.75Q103.95 31.25 104.33 30.45Q104.70 29.65 105.05 29L108.45 23.50L116.80 23.50L108 36.75L117.45 51L109.10 51L105.10 44.50Q104.70 43.80 104.33 43.02Q103.95 42.25 103.75 41.75Q103.55 42.25 103.20 43.02Q102.85 43.80 102.45 44.50L98.40 51L90.05 51ZM163.75 51.50Q160.10 51.50 157.40 50.13Q154.70 48.75 153.22 46.27Q151.75 43.80 151.75 40.50L151.75 25Q151.75 21.70 153.22 19.22Q154.70 16.75 157.40 15.38Q160.10 14 163.75 14Q167.45 14 170.13 15.38Q172.80 16.75 174.28 19.22Q175.75 21.70 175.75 25L175.75 40.50Q175.75 43.80 174.28 46.27Q172.80 48.75 170.13 50.13Q167.45 51.50 163.75 51.50M163.75 45Q166 45 167.13 43.83Q168.25 42.65 168.25 40.50L168.25 25Q168.25 22.80 167.15 21.65Q166.05 20.50 163.75 20.50Q161.45 20.50 160.35 21.65Q159.25 22.80 159.25 25L159.25 40.50Q159.25 42.65 160.38 43.83Q161.50 45 163.75 45ZM182.85 51L182.85 23.50L189.85 23.50L189.85 28.75L191.75 28.75L189.60 31.95Q189.60 27.50 191.65 25.25Q193.70 23 197.65 23Q202.20 23 204.72 25.75Q207.25 28.50 207.25 33.50L207.25 35.75L199.25 35.75L199.25 34Q199.25 31.75 198.03 30.50Q196.80 29.25 194.75 29.25Q192.60 29.25 191.47 30.50Q190.35 31.75 190.35 34L190.35 51L182.85 51ZM212.05 51L212.05 23.50L219.30 23.50L219.30 28.75L221.50 28.75L219.30 30.50Q219.30 27 221.30 25Q223.30 23 226.70 23Q230.70 23 233.13 25.80Q235.55 28.60 235.55 33.25L235.55 51L228.05 51L228.05 34Q228.05 31.85 226.93 30.67Q225.80 29.50 223.75 29.50Q221.75 29.50 220.65 30.67Q219.55 31.85 219.55 34L219.55 51L212.05 51ZM253.75 51.50Q250.10 51.50 247.40 50.13Q244.70 48.75 243.22 46.27Q241.75 43.80 241.75 40.50L241.75 34Q241.75 30.70 243.22 28.22Q244.70 25.75 247.40 24.38Q250.10 23 253.75 23Q257.45 23 260.13 24.38Q262.80 25.75 264.27 28.22Q265.75 30.70 265.75 34L265.75 40.50Q265.75 43.80 264.27 46.27Q262.80 48.75 260.13 50.13Q257.45 51.50 253.75 51.50M253.75 45Q255.95 45 257.10 43.83Q258.25 42.65 258.25 40.50L258.25 34Q258.25 31.80 257.10 30.65Q255.95 29.50 253.75 29.50Q251.60 29.50 250.43 30.65Q249.25 31.80 249.25 34L249.25 40.50Q249.25 42.65 250.43 43.83Q251.60 45 253.75 45ZM282.60 51.50Q279.20 51.50 276.65 50.42Q274.10 49.35 272.68 47.45Q271.25 45.55 271.25 43L278.75 43Q278.75 44.20 279.82 44.92Q280.90 45.65 282.60 45.65L284.80 45.65Q286.85 45.65 287.93 44.90Q289 44.15 289 42.80Q289 41.55 288.05 40.88Q287.10 40.20 285.10 39.95L281.90 39.55Q276.75 38.90 274.40 37.05Q272.05 35.20 272.05 31.40Q272.05 27.40 274.80 25.20Q277.55 23 282.85 23L284.75 23Q289.80 23 292.80 25.20Q295.80 27.40 295.80 31.10L288.30 31.10Q288.30 30.10 287.32 29.47Q286.35 28.85 284.75 28.85L282.85 28.85Q281 28.85 280.15 29.47Q279.30 30.10 279.30 31.35Q279.30 32.50 280.07 33.10Q280.85 33.70 282.55 33.95L286 34.40Q291.20 35.05 293.73 37Q296.25 38.95 296.25 42.80Q296.25 47 293.35 49.25Q290.45 51.50 284.80 51.50L282.60 51.50ZM310.20 51.50Q306.05 51.50 303.63 49.25Q301.20 47 301.20 43.15Q301.20 39 304.07 36.77Q306.95 34.55 312.35 34.55L318.05 34.55L318.05 32.50Q318.05 30.90 316.93 29.95Q315.80 29 313.90 29Q312.15 29 311 29.80Q309.85 30.60 309.60 32L302.35 32Q302.80 27.85 305.98 25.42Q309.15 23 314.15 23Q319.40 23 322.48 25.57Q325.55 28.15 325.55 32.50L325.55 51L318.30 51L318.30 46.50L317.10 46.50L318.35 44.75Q318.35 47.85 316.13 49.67Q313.90 51.50 310.20 51.50M313 46Q315.20 46 316.63 44.83Q318.05 43.65 318.05 41.75L318.05 38.80L312.50 38.80Q310.80 38.80 309.75 39.77Q308.70 40.75 308.70 42.35Q308.70 44.05 309.85 45.02Q311 46 313 46ZM812.25 51L812.25 14.50L835.75 14.50L835.75 21.50L819.65 21.50L819.65 29.60L834.45 29.60L834.45 36.60L819.75 36.60L819.75 51L812.25 51ZM853.75 51.50Q848.20 51.50 845.08 48.50Q841.95 45.50 841.95 40.30L841.95 23.50L849.45 23.50L849.45 40.25Q849.45 42.55 850.55 43.77Q851.65 45 853.75 45Q855.80 45 856.92 43.77Q858.05 42.55 858.05 40.25L858.05 23.50L865.55 23.50L865.55 40.30Q865.55 45.55 862.40 48.52Q859.25 51.50 853.75 51.50ZM888.25 51Q885.35 51 883.15 49.77Q880.95 48.55 879.73 46.35Q878.50 44.15 878.50 41.25L878.50 21.25L870 21.25L870 14.50L886 14.50L886 41.25Q886 42.60 886.83 43.42Q887.65 44.25 889 44.25L897 44.25L897 51L888.25 51ZM918.25 51Q915.35 51 913.15 49.77Q910.95 48.55 909.73 46.35Q908.50 44.15 908.50 41.25L908.50 21.25L900 21.25L900 14.50L916 14.50L916 41.25Q916 42.60 916.83 43.42Q917.65 44.25 919 44.25L927 44.25L927 51L918.25 51ZM972.60 51.50Q969.20 51.50 966.65 50.42Q964.10 49.35 962.67 47.45Q961.25 45.55 961.25 43L968.75 43Q968.75 44.20 969.83 44.92Q970.90 45.65 972.60 45.65L974.80 45.65Q976.85 45.65 977.92 44.90Q979 44.15 979 42.80Q979 41.55 978.05 40.88Q977.10 40.20 975.10 39.95L971.90 39.55Q966.75 38.90 964.40 37.05Q962.05 35.20 962.05 31.40Q962.05 27.40 964.80 25.20Q967.55 23 972.85 23L974.75 23Q979.80 23 982.80 25.20Q985.80 27.40 985.80 31.10L978.30 31.10Q978.30 30.10 977.33 29.47Q976.35 28.85 974.75 28.85L972.85 28.85Q971 28.85 970.15 29.47Q969.30 30.10 969.30 31.35Q969.30 32.50 970.08 33.10Q970.85 33.70 972.55 33.95L976 34.40Q981.20 35.05 983.73 37Q986.25 38.95 986.25 42.80Q986.25 47 983.35 49.25Q980.45 51.50 974.80 51.50L972.60 51.50ZM1006.75 51Q1002.55 51 1000.15 48.60Q997.75 46.20 997.75 42L997.75 30.25L990.50 30.25L990.50 23.50L997.75 23.50L997.75 15.75L1005.25 15.75L1005.25 23.50L1015.50 23.50L1015.50 30.25L1005.25 30.25L1005.25 42Q1005.25 44.25 1007.50 44.25L1015 44.25L1015 51L1006.75 51ZM1030.20 51.50Q1026.05 51.50 1023.63 49.25Q1021.20 47 1021.20 43.15Q1021.20 39 1024.08 36.77Q1026.95 34.55 1032.35 34.55L1038.05 34.55L1038.05 32.50Q1038.05 30.90 1036.92 29.95Q1035.80 29 1033.90 29Q1032.15 29 1031 29.80Q1029.85 30.60 1029.60 32L1022.35 32Q1022.80 27.85 1025.97 25.42Q1029.15 23 1034.15 23Q1039.40 23 1042.47 25.57Q1045.55 28.15 1045.55 32.50L1045.55 51L1038.30 51L1038.30 46.50L1037.10 46.50L1038.35 44.75Q1038.35 47.85 1036.13 49.67Q1033.90 51.50 1030.20 51.50M1033 46Q1035.20 46 1036.63 44.83Q1038.05 43.65 1038.05 41.75L1038.05 38.80L1032.50 38.80Q1030.80 38.80 1029.75 39.77Q1028.70 40.75 1028.70 42.35Q1028.70 44.05 1029.85 45.02Q1031 46 1033 46ZM1063.90 51.50Q1060.25 51.50 1057.50 50.13Q1054.75 48.75 1053.25 46.27Q1051.75 43.80 1051.75 40.50L1051.75 34Q1051.75 30.65 1053.25 28.20Q1054.75 25.75 1057.50 24.38Q1060.25 23 1063.90 23Q1069.35 23 1072.60 25.75Q1075.85 28.50 1076.05 33.25L1068.55 33.25Q1068.40 31.50 1067.17 30.50Q1065.95 29.50 1063.90 29.50Q1061.65 29.50 1060.45 30.65Q1059.25 31.80 1059.25 34L1059.25 40.50Q1059.25 42.65 1060.45 43.83Q1061.65 45 1063.90 45Q1065.95 45 1067.17 44.02Q1068.40 43.05 1068.55 41.25L1076.05 41.25Q1075.85 46 1072.60 48.75Q1069.35 51.50 1063.90 51.50ZM1082.20 51L1082.20 14.50L1089.70 14.50L1089.70 33.90L1093.40 33.90L1099.15 23.50L1107.50 23.50L1099.85 36.95L1107.65 51L1099.15 51L1093.35 40.20L1089.70 40.20L1089.70 51L1082.20 51ZM1150.90 51.50Q1146.75 51.50 1144.25 48.60Q1141.75 45.70 1141.75 40.75L1141.75 33.75Q1141.75 28.85 1144.25 25.92Q1146.75 23 1150.90 23Q1154.30 23 1156.25 24.97Q1158.20 26.95 1158.20 30.50L1156.45 28.75L1158.20 28.75L1157.95 22L1157.95 14.50L1165.45 14.50L1165.45 51L1158.20 51L1158.20 45.75L1156.45 45.75L1158.20 44Q1158.20 47.55 1156.25 49.52Q1154.30 51.50 1150.90 51.50M1153.60 45Q1155.65 45 1156.80 43.83Q1157.95 42.65 1157.95 40.50L1157.95 34Q1157.95 31.85 1156.80 30.67Q1155.65 29.50 1153.60 29.50Q1151.50 29.50 1150.38 30.67Q1149.25 31.85 1149.25 34L1149.25 40.50Q1149.25 42.65 1150.38 43.83Q1151.50 45 1153.60 45ZM1183.80 51.50Q1180.15 51.50 1177.42 50.13Q1174.70 48.75 1173.22 46.27Q1171.75 43.80 1171.75 40.50L1171.75 34Q1171.75 30.70 1173.22 28.22Q1174.70 25.75 1177.42 24.38Q1180.15 23 1183.80 23Q1187.45 23 1190.13 24.38Q1192.80 25.75 1194.28 28.22Q1195.75 30.70 1195.75 34L1195.75 39L1178.90 39L1178.90 40.50Q1178.90 43.10 1180.15 44.42Q1181.40 45.75 1183.90 45.75Q1185.65 45.75 1186.72 45.15Q1187.80 44.55 1188.15 43.50L1195.50 43.50Q1194.60 47.10 1191.42 49.30Q1188.25 51.50 1183.80 51.50M1188.60 35.15L1188.60 33.90Q1188.60 31.35 1187.42 30Q1186.25 28.65 1183.80 28.65Q1181.35 28.65 1180.13 30.05Q1178.90 31.45 1178.90 34L1178.90 34.75L1189.10 34.65L1188.60 35.15ZM1209.10 51L1200.10 23.50L1207.85 23.50L1212.45 38.95Q1212.85 40.35 1213.25 42Q1213.65 43.65 1213.85 44.65Q1214.10 43.65 1214.47 42Q1214.85 40.35 1215.20 39L1219.75 23.50L1227.40 23.50L1218.50 51L1209.10 51ZM1243.80 51.50Q1240.15 51.50 1237.42 50.13Q1234.70 48.75 1233.22 46.27Q1231.75 43.80 1231.75 40.50L1231.75 34Q1231.75 30.70 1233.22 28.22Q1234.70 25.75 1237.42 24.38Q1240.15 23 1243.80 23Q1247.45 23 1250.13 24.38Q1252.80 25.75 1254.28 28.22Q1255.75 30.70 1255.75 34L1255.75 39L1238.90 39L1238.90 40.50Q1238.90 43.10 1240.15 44.42Q1241.40 45.75 1243.90 45.75Q1245.65 45.75 1246.72 45.15Q1247.80 44.55 1248.15 43.50L1255.50 43.50Q1254.60 47.10 1251.42 49.30Q1248.25 51.50 1243.80 51.50M1248.60 35.15L1248.60 33.90Q1248.60 31.35 1247.42 30Q1246.25 28.65 1243.80 28.65Q1241.35 28.65 1240.13 30.05Q1238.90 31.45 1238.90 34L1238.90 34.75L1249.10 34.65L1248.60 35.15ZM1278.25 51Q1275.35 51 1273.15 49.77Q1270.95 48.55 1269.72 46.35Q1268.50 44.15 1268.50 41.25L1268.50 21.25L1260 21.25L1260 14.50L1276 14.50L1276 41.25Q1276 42.60 1276.83 43.42Q1277.65 44.25 1279 44.25L1287 44.25L1287 51L1278.25 51ZM1303.75 51.50Q1300.10 51.50 1297.40 50.13Q1294.70 48.75 1293.22 46.27Q1291.75 43.80 1291.75 40.50L1291.75 34Q1291.75 30.70 1293.22 28.22Q1294.70 25.75 1297.40 24.38Q1300.10 23 1303.75 23Q1307.45 23 1310.13 24.38Q1312.80 25.75 1314.28 28.22Q1315.75 30.70 1315.75 34L1315.75 40.50Q1315.75 43.80 1314.28 46.27Q1312.80 48.75 1310.13 50.13Q1307.45 51.50 1303.75 51.50M1303.75 45Q1305.95 45 1307.10 43.83Q1308.25 42.65 1308.25 40.50L1308.25 34Q1308.25 31.80 1307.10 30.65Q1305.95 29.50 1303.75 29.50Q1301.60 29.50 1300.42 30.65Q1299.25 31.80 1299.25 34L1299.25 40.50Q1299.25 42.65 1300.42 43.83Q1301.60 45 1303.75 45ZM1322.05 60L1322.05 23.50L1329.30 23.50L1329.30 28.75L1331.05 28.75L1329.30 30.50Q1329.30 26.95 1331.25 24.97Q1333.20 23 1336.60 23Q1340.75 23 1343.25 25.92Q1345.75 28.85 1345.75 33.75L1345.75 40.75Q1345.75 44 1344.63 46.42Q1343.50 48.85 1341.45 50.17Q1339.40 51.50 1336.60 51.50Q1333.20 51.50 1331.25 49.52Q1329.30 47.55 1329.30 44L1331.05 45.75L1329.30 45.75L1329.55 52.50L1329.55 60L1322.05 60M1333.90 45Q1336 45 1337.13 43.83Q1338.25 42.65 1338.25 40.50L1338.25 34Q1338.25 31.80 1337.13 30.65Q1336 29.50 1333.90 29.50Q1331.85 29.50 1330.70 30.67Q1329.55 31.85 1329.55 34L1329.55 40.50Q1329.55 42.65 1330.70 43.83Q1331.85 45 1333.90 45ZM1363.80 51.50Q1360.15 51.50 1357.42 50.13Q1354.70 48.75 1353.22 46.27Q1351.75 43.80 1351.75 40.50L1351.75 34Q1351.75 30.70 1353.22 28.22Q1354.70 25.75 1357.42 24.38Q1360.15 23 1363.80 23Q1367.45 23 1370.13 24.38Q1372.80 25.75 1374.28 28.22Q1375.75 30.70 1375.75 34L1375.75 39L1358.90 39L1358.90 40.50Q1358.90 43.10 1360.15 44.42Q1361.40 45.75 1363.90 45.75Q1365.65 45.75 1366.72 45.15Q1367.80 44.55 1368.15 43.50L1375.50 43.50Q1374.60 47.10 1371.42 49.30Q1368.25 51.50 1363.80 51.50M1368.60 35.15L1368.60 33.90Q1368.60 31.35 1367.42 30Q1366.25 28.65 1363.80 28.65Q1361.35 28.65 1360.13 30.05Q1358.90 31.45 1358.90 34L1358.90 34.75L1369.10 34.65L1368.60 35.15ZM1382.85 51L1382.85 23.50L1389.85 23.50L1389.85 28.75L1391.75 28.75L1389.60 31.95Q1389.60 27.50 1391.65 25.25Q1393.70 23 1397.65 23Q1402.20 23 1404.72 25.75Q1407.25 28.50 1407.25 33.50L1407.25 35.75L1399.25 35.75L1399.25 34Q1399.25 31.75 1398.03 30.50Q1396.80 29.25 1394.75 29.25Q1392.60 29.25 1391.47 30.50Q1390.35 31.75 1390.35 34L1390.35 51L1382.85 51Z"/></g></g></svg>